<?xml version="1.0" standalone="no"?>
<!DOCTYPE svg PUBLIC "-//W3C//DTD SVG 20010904//EN"
 "http://www.w3.org/TR/2001/REC-SVG-20010904/DTD/svg10.dtd">
<svg version="1.0" xmlns="http://www.w3.org/2000/svg"
 width="369.000000pt" height="368.000000pt" viewBox="0 0 369.000000 368.000000"
 preserveAspectRatio="xMidYMid meet">

<g transform="translate(0.000000,368.000000) scale(0.100000,-0.100000)"
fill="#000000" stroke="none">
<path d="M914 2975 c-7 -11 -18 -32 -25 -47 -7 -16 -16 -28 -21 -28 -4 0 -8
-4 -8 -10 0 -5 -22 -47 -48 -92 -67 -115 -80 -138 -134 -231 -26 -45 -52 -87
-57 -94 -6 -7 -11 -15 -11 -18 0 -3 -18 -36 -39 -73 -22 -37 -52 -87 -66 -112
-14 -25 -48 -83 -76 -129 -45 -76 -48 -85 -34 -101 8 -9 15 -19 15 -22 0 -3
23 -45 52 -94 138 -239 194 -336 263 -459 54 -96 80 -141 88 -150 9 -11 45
-76 79 -142 l22 -43 264 -2 264 -3 78 -135 c78 -133 139 -241 166 -291 l14
-26 362 -6 c199 -4 441 -7 539 -7 l177 0 31 42 c17 23 31 45 31 48 0 4 22 45
50 91 27 46 61 107 76 134 15 28 30 52 35 53 5 2 9 7 9 11 0 5 23 48 52 97 28
49 67 116 86 149 18 33 49 85 67 115 19 30 37 62 41 70 4 8 23 41 42 72 l34
57 -48 81 c-48 80 -73 123 -133 230 -17 30 -47 82 -66 115 -19 33 -46 80 -60
105 -14 25 -36 63 -49 85 -36 62 -106 185 -132 232 -13 23 -30 54 -40 68 l-16
25 -263 0 -263 0 -19 38 c-11 20 -46 82 -78 137 -32 55 -73 125 -89 155 -17
30 -42 71 -55 90 l-23 35 -536 0 c-524 0 -535 0 -548 -20z m1082 -73 c12 -20
48 -84 80 -142 32 -58 61 -107 65 -110 3 -3 18 -29 33 -57 l26 -53 -234 0
c-184 0 -241 3 -269 15 -20 8 -38 19 -42 25 -3 5 -27 19 -53 30 -25 11 -49 24
-52 29 -3 4 -32 22 -65 40 -33 19 -80 45 -105 58 -25 14 -47 28 -50 32 -3 3
-23 15 -45 26 -22 11 -42 23 -45 26 -5 6 -66 40 -151 85 -22 11 -36 23 -33 27
4 4 212 7 463 7 l456 0 21 -38z m-996 9 c3 -4 25 -19 50 -33 62 -35 211 -121
232 -133 9 -5 40 -24 70 -41 29 -17 82 -48 118 -69 36 -21 85 -49 110 -63 25
-13 47 -27 50 -32 3 -4 15 -10 28 -14 34 -11 27 -22 -25 -39 -155 -51 -324
-196 -385 -329 -12 -27 -25 -48 -28 -48 -4 0 -17 -43 -30 -95 -20 -83 -22
-112 -18 -230 3 -74 3 -135 -1 -135 -3 0 -26 14 -50 30 -24 17 -50 30 -56 30
-7 0 -18 7 -25 14 -6 8 -33 25 -58 38 -26 12 -51 26 -57 30 -17 15 -144 88
-151 88 -4 0 -31 16 -60 35 -29 19 -56 35 -61 35 -5 0 -18 7 -28 15 -11 9 -55
36 -98 61 -54 32 -75 50 -68 58 5 6 20 31 34 56 13 25 40 72 59 105 19 33 77
132 128 220 51 88 115 198 143 245 27 47 61 105 75 130 49 89 52 91 75 84 12
-4 24 -10 27 -13z m1263 -475 c15 -24 27 -46 27 -50 0 -11 -18 -7 -32 8 -8 8
-37 25 -64 40 -84 43 -85 46 -19 46 60 0 60 0 88 -44z m528 -11 c68 -119 81
-142 103 -180 23 -40 88 -154 131 -230 40 -70 85 -149 104 -180 59 -98 82
-145 71 -145 -11 0 -47 20 -160 89 -19 11 -54 30 -77 41 -23 11 -45 25 -48 29
-3 5 -26 19 -53 32 -26 12 -49 25 -52 29 -3 3 -25 18 -50 31 -147 83 -226 132
-235 146 -11 19 -36 63 -118 208 -31 55 -61 107 -67 115 -5 8 -17 27 -25 43
l-16 27 232 -2 232 -3 28 -50z m-792 35 c54 -10 195 -74 247 -113 27 -20 86
-79 125 -125 15 -18 89 -146 89 -155 0 -2 -19 -10 -42 -16 -24 -7 -47 -17 -53
-21 -5 -4 -46 -18 -89 -30 -44 -12 -87 -26 -95 -31 -9 -5 -50 -20 -91 -33 -41
-14 -102 -34 -134 -45 -33 -12 -65 -21 -72 -21 -14 0 -27 51 -54 218 -10 67
-21 126 -24 130 -3 5 -12 50 -21 102 -8 52 -18 107 -21 123 l-6 27 95 0 c52 0
117 -4 146 -10z m-359 -32 c0 -7 -11 -31 -24 -53 -14 -22 -45 -76 -71 -120
-25 -44 -66 -114 -90 -155 -24 -41 -57 -97 -72 -124 -15 -27 -33 -56 -38 -65
-6 -9 -29 -50 -52 -91 -70 -124 -70 -124 -79 -55 -11 90 10 233 47 319 62 141
163 249 304 322 69 37 75 38 75 22z m101 -114 c9 -54 19 -106 23 -114 3 -8 17
-81 30 -163 14 -81 28 -152 31 -156 12 -21 -10 -41 -63 -56 -32 -9 -70 -23
-87 -30 -16 -8 -64 -24 -105 -36 -41 -12 -79 -25 -85 -29 -5 -5 -44 -18 -85
-30 -41 -12 -79 -26 -85 -31 -10 -10 -45 -12 -45 -3 0 6 40 75 102 175 15 25
28 49 28 53 0 5 8 20 19 34 19 28 117 195 157 268 22 41 58 103 82 139 6 11
20 35 29 53 9 18 22 31 27 29 6 -2 18 -48 27 -103z m944 -388 c22 -13 69 -40
105 -61 36 -21 85 -49 110 -64 25 -14 51 -31 58 -38 7 -7 18 -13 23 -13 6 0
35 -16 65 -35 30 -19 57 -35 60 -35 3 0 35 -18 71 -40 36 -21 70 -41 76 -43 6
-2 -5 -29 -25 -63 -37 -62 -112 -190 -181 -309 -101 -175 -184 -318 -243 -417
-19 -31 -34 -61 -34 -67 0 -6 -5 -11 -10 -11 -13 0 -73 30 -80 40 -3 4 -29 20
-58 36 -61 33 -86 47 -157 89 -27 17 -62 37 -78 45 -15 8 -62 36 -105 61 -42
26 -113 67 -157 92 -44 24 -81 51 -83 58 -1 9 23 22 73 38 41 14 75 27 75 30
0 4 24 21 54 38 59 36 166 145 192 196 9 17 22 39 29 47 7 8 23 44 35 80 12
36 27 76 34 89 12 27 15 256 4 309 l-8 33 58 -31 c31 -18 75 -42 97 -54z
m-265 24 c-17 -28 -30 -55 -30 -60 0 -4 -4 -10 -8 -12 -7 -3 -40 -56 -81 -133
-9 -16 -33 -58 -54 -91 -20 -34 -37 -66 -37 -72 0 -6 -4 -12 -8 -14 -4 -1 -19
-23 -34 -48 -14 -25 -42 -74 -63 -110 -21 -36 -50 -87 -65 -115 -47 -86 -47
-86 -85 125 -13 74 -33 180 -44 235 -29 147 -29 151 22 174 23 10 69 26 102
36 33 9 65 20 70 25 6 4 46 18 89 30 44 12 87 26 95 31 18 10 129 46 148 48 7
1 0 -20 -17 -49z m-1854 -5 c29 -19 57 -35 62 -35 6 0 17 -6 24 -13 7 -7 36
-26 63 -41 28 -16 68 -38 90 -51 22 -12 72 -41 110 -63 68 -40 108 -63 210
-121 40 -23 58 -43 89 -97 21 -38 49 -87 62 -109 13 -22 35 -60 49 -85 15 -25
37 -63 50 -85 13 -22 24 -46 24 -53 1 -10 -48 -12 -226 -10 l-227 3 -44 80
c-24 44 -69 123 -100 175 -31 52 -64 109 -73 125 -9 17 -35 64 -59 105 -24 41
-50 89 -59 105 -9 17 -24 41 -32 55 -102 167 -103 175 -13 115z m1936 -120 c0
-64 -5 -112 -11 -118 -6 -6 -11 -19 -11 -29 0 -24 -39 -141 -50 -148 -4 -3
-17 -24 -29 -47 -26 -52 -145 -171 -203 -203 -73 -39 -117 -60 -128 -60 -7 0
1 21 16 48 15 26 37 63 49 83 11 20 32 56 46 80 69 116 119 203 180 314 18 33
38 65 43 72 6 6 26 39 45 73 22 37 38 57 44 51 5 -5 9 -57 9 -116z m-641 -141
c8 -55 18 -108 22 -118 4 -9 16 -72 27 -139 11 -67 25 -143 31 -170 17 -73 6
-81 -106 -74 -138 8 -292 64 -377 137 -85 71 -171 182 -184 237 -4 13 -11 23
-16 23 -27 0 17 29 60 40 26 6 61 18 77 25 17 8 64 24 105 36 41 12 80 25 85
29 6 5 44 18 85 30 41 12 80 26 85 30 14 11 46 18 70 17 17 -2 22 -15 36 -103z
m-272 -494 c10 0 12 -3 5 -10 -7 -7 -32 -8 -66 -4 -53 6 -56 8 -77 50 -11 25
-21 47 -21 49 0 3 33 -15 72 -40 40 -25 79 -45 87 -45z m431 -88 c14 -9 41
-25 60 -35 19 -10 64 -35 100 -57 36 -21 88 -51 115 -66 28 -15 52 -29 55 -33
3 -4 16 -12 30 -19 14 -7 59 -32 100 -57 41 -24 99 -57 128 -72 28 -15 52 -31
52 -35 0 -4 -207 -8 -460 -8 l-459 0 -27 48 c-15 26 -51 88 -79 137 -29 50
-65 113 -81 140 -56 97 -77 88 198 80 200 -6 247 -10 268 -23z"/>
</g>
</svg>
