<?xml version="1.0" standalone="no"?>
<!DOCTYPE svg PUBLIC "-//W3C//DTD SVG 20010904//EN"
 "http://www.w3.org/TR/2001/REC-SVG-20010904/DTD/svg10.dtd">
<svg version="1.0" xmlns="http://www.w3.org/2000/svg"
 width="295.000000pt" height="294.000000pt" viewBox="0 0 295.000000 294.000000"
 preserveAspectRatio="xMidYMid meet">

<g transform="translate(0.000000,294.000000) scale(0.100000,-0.100000)"
fill="#000000" stroke="none">
<path d="M490 1465 l0 -1165 145 0 145 0 0 1015 0 1015 328 0 c200 0 342 -4
365 -11 53 -14 112 -71 133 -127 17 -43 19 -101 22 -684 l3 -638 145 0 145 0
-3 678 c-4 621 -5 682 -22 732 -45 135 -122 234 -226 289 -107 57 -143 61
-687 61 l-493 0 0 -1165z"/>
<path d="M2208 1703 l-3 -928 -27 -57 c-32 -68 -79 -103 -159 -118 -32 -6
-183 -9 -360 -8 l-304 3 -3 733 -2 733 -138 -3 -137 -3 -3 -878 -2 -878 527 3
c513 3 530 4 585 25 171 65 277 197 308 385 6 40 10 408 10 991 l0 927 -145 0
-145 0 -2 -927z"/>
</g>
</svg>
